<?xml version="1.0" encoding="UTF-8" standalone="no"?>
<!DOCTYPE svg PUBLIC "-//W3C//DTD SVG 1.1//EN"
 "http://www.w3.org/Graphics/SVG/1.1/DTD/svg11.dtd">
<!-- Generated by graphviz version 2.40.1 (20161225.0304)
 -->
<!-- Title: G Pages: 1 -->
<svg width="509pt" height="806pt"
 viewBox="0.00 0.00 509.00 806.00" xmlns="http://www.w3.org/2000/svg" xmlns:xlink="http://www.w3.org/1999/xlink">
<g id="graph0" class="graph" transform="scale(1 1) rotate(0) translate(4 802)">
<title>G</title>
<polygon fill="#ffffff" stroke="transparent" points="-4,4 -4,-802 505,-802 505,4 -4,4"/>
<g id="clust1" class="cluster">
<title>cluster_Global</title>
<path fill="none" stroke="#c0c0c0" d="M20,-44C20,-44 481,-44 481,-44 487,-44 493,-50 493,-56 493,-56 493,-778 493,-778 493,-784 487,-790 481,-790 481,-790 20,-790 20,-790 14,-790 8,-784 8,-778 8,-778 8,-56 8,-56 8,-50 14,-44 20,-44"/>
<text text-anchor="middle" x="250.5" y="-777.2" font-family="Times,serif" font-size="11.00" fill="#c0c0c0">Global</text>
</g>
<g id="clust2" class="cluster">
<title>cluster_\Broker</title>
<path fill="none" stroke="#c0c0c0" d="M52,-52C52,-52 300,-52 300,-52 306,-52 312,-58 312,-64 312,-64 312,-706 312,-706 312,-712 306,-718 300,-718 300,-718 52,-718 52,-718 46,-718 40,-712 40,-706 40,-706 40,-64 40,-64 40,-58 46,-52 52,-52"/>
<text text-anchor="middle" x="176" y="-705.2" font-family="Times,serif" font-size="11.00" fill="#c0c0c0">Broker</text>
</g>
<g id="clust3" class="cluster">
<title>cluster_\BrokerExpansion</title>
<path fill="none" stroke="#c0c0c0" d="M380,-52C380,-52 473,-52 473,-52 479,-52 485,-58 485,-64 485,-64 485,-220 485,-220 485,-226 479,-232 473,-232 473,-232 380,-232 380,-232 374,-232 368,-226 368,-220 368,-220 368,-64 368,-64 368,-58 374,-52 380,-52"/>
<text text-anchor="middle" x="426.5" y="-219.2" font-family="Times,serif" font-size="11.00" fill="#c0c0c0">BrokerExpansion</text>
</g>
<!-- \\Broker\\Cache -->
<g id="node1" class="node">
<title>\\Broker\\Cache</title>
<polygon fill="none" stroke="#000000" points="288,-204 234,-204 234,-168 288,-168 288,-204"/>
<text text-anchor="middle" x="261" y="-183.2" font-family="Courier,monospace" font-size="11.00" fill="#000000">Cache</text>
</g>
<!-- \\Broker\\Database -->
<g id="node4" class="node">
<title>\\Broker\\Database</title>
<polygon fill="none" stroke="#000000" points="114,-582 48,-582 48,-546 114,-546 114,-582"/>
<text text-anchor="start" x="56" y="-567.2" font-family="Courier,monospace" font-size="11.00" fill="#000000">«abstract»</text>
<text text-anchor="start" x="61" y="-555.2" font-family="Courier,monospace" font-size="11.00" fill="#000000">Database</text>
</g>
<!-- \\Broker\\Cache&#45;&gt;\\Broker\\Database -->
<g id="edge1" class="edge">
<title>\\Broker\\Cache&#45;&gt;\\Broker\\Database</title>
<path fill="none" stroke="#000000" d="M233.8994,-199.3238C228.0863,-203.1261 222.3825,-207.7021 218,-213 134.4399,-314.0133 97.7495,-471.9773 85.7545,-535.8215"/>
<polygon fill="none" stroke="#000000" points="82.2624,-535.4627 83.9164,-545.9276 89.1494,-536.7154 82.2624,-535.4627"/>
</g>
<!-- \\Broker\\ExpansionCache -->
<g id="node2" class="node">
<title>\\Broker\\ExpansionCache</title>
<polygon fill="none" stroke="#000000" points="304,-636 218,-636 218,-600 304,-600 304,-636"/>
<text text-anchor="middle" x="261" y="-615.2" font-family="Courier,monospace" font-size="11.00" fill="#000000">ExpansionCache</text>
</g>
<!-- \\Broker\\ExpansionCache&#45;&gt;\\Broker\\Database -->
<g id="edge2" class="edge">
<title>\\Broker\\ExpansionCache&#45;&gt;\\Broker\\Database</title>
<path fill="none" stroke="#000000" d="M217.8855,-605.0657C189.4161,-596.5248 152.2627,-585.3788 123.8478,-576.8543"/>
<polygon fill="none" stroke="#000000" points="124.7741,-573.4782 114.1901,-573.957 122.7626,-580.183 124.7741,-573.4782"/>
</g>
<!-- \\Broker\\Collection -->
<g id="node3" class="node">
<title>\\Broker\\Collection</title>
<polygon fill="none" stroke="#000000" points="294,-582 228,-582 228,-546 294,-546 294,-582"/>
<text text-anchor="middle" x="261" y="-561.2" font-family="Courier,monospace" font-size="11.00" fill="#000000">Collection</text>
</g>
<!-- \\Broker\\Collection&#45;&gt;\\Broker\\Database -->
<g id="edge3" class="edge">
<title>\\Broker\\Collection&#45;&gt;\\Broker\\Database</title>
<path fill="none" stroke="#000000" d="M227.9852,-564C198.8971,-564 156.3178,-564 124.4656,-564"/>
<polygon fill="none" stroke="#000000" points="124.1098,-560.5001 114.1098,-564 124.1097,-567.5001 124.1098,-560.5001"/>
</g>
<!-- \\Broker\\Parser -->
<g id="node5" class="node">
<title>\\Broker\\Parser</title>
<polygon fill="none" stroke="#000000" points="288,-528 234,-528 234,-492 288,-492 288,-528"/>
<text text-anchor="middle" x="261" y="-507.2" font-family="Courier,monospace" font-size="11.00" fill="#000000">Parser</text>
</g>
<!-- \\Broker\\Configuration -->
<g id="node6" class="node">
<title>\\Broker\\Configuration</title>
<polygon fill="none" stroke="#000000" points="301.5,-474 220.5,-474 220.5,-438 301.5,-438 301.5,-474"/>
<text text-anchor="middle" x="261" y="-453.2" font-family="Courier,monospace" font-size="11.00" fill="#000000">Configuration</text>
</g>
<!-- \\Broker\\Response -->
<g id="node7" class="node">
<title>\\Broker\\Response</title>
<polygon fill="none" stroke="#000000" points="289,-420 233,-420 233,-384 289,-384 289,-420"/>
<text text-anchor="middle" x="261" y="-399.2" font-family="Courier,monospace" font-size="11.00" fill="#000000">Response</text>
</g>
<!-- \\Broker\\Session -->
<g id="node8" class="node">
<title>\\Broker\\Session</title>
<polygon fill="none" stroke="#000000" points="288,-690 234,-690 234,-654 288,-654 288,-690"/>
<text text-anchor="middle" x="261" y="-669.2" font-family="Courier,monospace" font-size="11.00" fill="#000000">Session</text>
</g>
<!-- \\Broker\\Session&#45;&gt;\\Broker\\Database -->
<g id="edge4" class="edge">
<title>\\Broker\\Session&#45;&gt;\\Broker\\Database</title>
<path fill="none" stroke="#000000" d="M233.8197,-655.6586C228.4939,-652.2547 223.0091,-648.6032 218,-645 184.415,-620.8411 182.1788,-606.0673 146,-586 139.0409,-582.14 131.2881,-578.7966 123.6296,-575.9629"/>
<polygon fill="none" stroke="#000000" points="124.6408,-572.6092 114.046,-572.6457 122.3511,-579.2242 124.6408,-572.6092"/>
</g>
<!-- \\SessionHandlerInterface -->
<g id="node17" class="node">
<title>\\SessionHandlerInterface</title>
<polygon fill="none" stroke="#000000" points="146,-762 16,-762 16,-726 146,-726 146,-762"/>
<text text-anchor="middle" x="81" y="-741.2" font-family="Courier,monospace" font-size="11.00" fill="#000000">SessionHandlerInterface</text>
</g>
<!-- \\Broker\\Session&#45;&gt;\\SessionHandlerInterface -->
<g id="edge5" class="edge">
<title>\\Broker\\Session&#45;&gt;\\SessionHandlerInterface</title>
<path fill="none" stroke="#000000" stroke-dasharray="1,5" d="M233.8487,-684.5718C210.7125,-695.0989 176.4669,-710.2446 146,-722 145.677,-722.1246 145.3529,-722.2493 145.0279,-722.3739"/>
<polygon fill="none" stroke="#000000" points="143.5324,-719.1961 135.3864,-725.9706 145.9791,-725.7546 143.5324,-719.1961"/>
</g>
<!-- \\Broker\\Authentication -->
<g id="node9" class="node">
<title>\\Broker\\Authentication</title>
<polygon fill="none" stroke="#000000" points="304,-312 218,-312 218,-276 304,-276 304,-312"/>
<text text-anchor="middle" x="261" y="-291.2" font-family="Courier,monospace" font-size="11.00" fill="#000000">Authentication</text>
</g>
<!-- \\Broker\\Solr -->
<g id="node10" class="node">
<title>\\Broker\\Solr</title>
<polygon fill="none" stroke="#000000" points="288,-258 234,-258 234,-222 288,-222 288,-258"/>
<text text-anchor="middle" x="261" y="-237.2" font-family="Courier,monospace" font-size="11.00" fill="#000000">Solr</text>
</g>
<!-- \\Broker\\Status -->
<g id="node11" class="node">
<title>\\Broker\\Status</title>
<polygon fill="none" stroke="#000000" points="288,-366 234,-366 234,-330 288,-330 288,-366"/>
<text text-anchor="middle" x="261" y="-345.2" font-family="Courier,monospace" font-size="11.00" fill="#000000">Status</text>
</g>
<!-- \\Broker\\Status&#45;&gt;\\Broker\\Database -->
<g id="edge6" class="edge">
<title>\\Broker\\Status&#45;&gt;\\Broker\\Database</title>
<path fill="none" stroke="#000000" d="M233.9244,-362.7787C228.3659,-366.4073 222.7634,-370.5435 218,-375 164.7124,-424.8551 118.6081,-498.082 95.9454,-537.1371"/>
<polygon fill="none" stroke="#000000" points="92.8924,-535.4253 90.9552,-545.8416 98.9652,-538.9068 92.8924,-535.4253"/>
</g>
<!-- \\Broker\\SolrException -->
<g id="node12" class="node">
<title>\\Broker\\SolrException</title>
<polygon fill="none" stroke="#000000" points="301.5,-150 220.5,-150 220.5,-114 301.5,-114 301.5,-150"/>
<text text-anchor="middle" x="261" y="-129.2" font-family="Courier,monospace" font-size="11.00" fill="#000000">SolrException</text>
</g>
<!-- \\Exception -->
<g id="node18" class="node">
<title>\\Exception</title>
<ellipse fill="none" stroke="#000000" cx="81" cy="-18" rx="34.394" ry="18"/>
<text text-anchor="middle" x="81" y="-14.3" font-family="Times,serif" font-size="14.00" fill="#c0c0c0">xception</text>
</g>
<!-- \\Broker\\SolrException&#45;&gt;\\Exception -->
<g id="edge7" class="edge">
<title>\\Broker\\SolrException&#45;&gt;\\Exception</title>
<path fill="none" stroke="#000000" d="M231.1148,-113.8247C226.666,-110.9499 222.1754,-107.9505 218,-105 184.6681,-81.4466 180.773,-69.3685 146,-48 137.1846,-42.5828 127.2288,-37.5163 117.8065,-33.1454"/>
<polygon fill="none" stroke="#000000" points="119.18,-29.9255 108.624,-29.019 116.3108,-36.3105 119.18,-29.9255"/>
</g>
<!-- \\Broker\\Expansion -->
<g id="node13" class="node">
<title>\\Broker\\Expansion</title>
<polygon fill="none" stroke="#000000" points="291.5,-96 230.5,-96 230.5,-60 291.5,-60 291.5,-96"/>
<text text-anchor="middle" x="261" y="-75.2" font-family="Courier,monospace" font-size="11.00" fill="#000000">Expansion</text>
</g>
<!-- \\BrokerExpansion\\DistanceExpansion -->
<g id="node14" class="node">
<title>\\BrokerExpansion\\DistanceExpansion</title>
<polygon fill="none" stroke="#000000" points="477,-204 376,-204 376,-168 477,-168 477,-204"/>
<text text-anchor="middle" x="426.5" y="-183.2" font-family="Courier,monospace" font-size="11.00" fill="#000000">DistanceExpansion</text>
</g>
<!-- \\BrokerExpansion\\DistanceExpansion&#45;&gt;\\Broker\\Expansion -->
<g id="edge8" class="edge">
<title>\\BrokerExpansion\\DistanceExpansion&#45;&gt;\\Broker\\Expansion</title>
<path fill="none" stroke="#000000" stroke-dasharray="1,5" d="M383.099,-167.9828C377.8634,-165.229 372.7089,-162.2203 368,-159 339.4601,-139.4826 339.9976,-125.2876 312,-105 308.3418,-102.3492 304.3899,-99.7945 300.3613,-97.3843"/>
<polygon fill="none" stroke="#000000" points="301.9284,-94.2493 291.5038,-92.3575 298.4734,-100.3373 301.9284,-94.2493"/>
</g>
<!-- \\BrokerExpansion\\IdentityExpansion -->
<g id="node15" class="node">
<title>\\BrokerExpansion\\IdentityExpansion</title>
<polygon fill="none" stroke="#000000" points="477,-150 376,-150 376,-114 477,-114 477,-150"/>
<text text-anchor="middle" x="426.5" y="-129.2" font-family="Courier,monospace" font-size="11.00" fill="#000000">IdentityExpansion</text>
</g>
<!-- \\BrokerExpansion\\IdentityExpansion&#45;&gt;\\Broker\\Expansion -->
<g id="edge9" class="edge">
<title>\\BrokerExpansion\\IdentityExpansion&#45;&gt;\\Broker\\Expansion</title>
<path fill="none" stroke="#000000" stroke-dasharray="1,5" d="M375.9453,-115.5048C351.9316,-107.6695 323.6324,-98.4359 301.1224,-91.0913"/>
<polygon fill="none" stroke="#000000" points="302.1345,-87.74 291.5421,-87.9654 299.9631,-94.3947 302.1345,-87.74"/>
</g>
<!-- \\BrokerExpansion\\ExplodeExpansion -->
<g id="node16" class="node">
<title>\\BrokerExpansion\\ExplodeExpansion</title>
<polygon fill="none" stroke="#000000" points="474.5,-96 378.5,-96 378.5,-60 474.5,-60 474.5,-96"/>
<text text-anchor="middle" x="426.5" y="-75.2" font-family="Courier,monospace" font-size="11.00" fill="#000000">ExplodeExpansion</text>
</g>
<!-- \\BrokerExpansion\\ExplodeExpansion&#45;&gt;\\Broker\\Expansion -->
<g id="edge10" class="edge">
<title>\\BrokerExpansion\\ExplodeExpansion&#45;&gt;\\Broker\\Expansion</title>
<path fill="none" stroke="#000000" stroke-dasharray="1,5" d="M378.1856,-78C354.0262,-78 325.1004,-78 302.0322,-78"/>
<polygon fill="none" stroke="#000000" points="301.8837,-74.5001 291.8836,-78 301.8836,-81.5001 301.8837,-74.5001"/>
</g>
</g>
</svg>
