<?xml version="1.0" encoding="UTF-8" standalone="no"?>
<!DOCTYPE svg PUBLIC "-//W3C//DTD SVG 1.1//EN"
 "http://www.w3.org/Graphics/SVG/1.1/DTD/svg11.dtd">
<!-- Generated by graphviz version 2.40.1 (20161225.0304)
 -->
<!-- Title: G Pages: 1 -->
<svg width="619pt" height="726pt"
 viewBox="0.00 0.00 619.38 726.00" xmlns="http://www.w3.org/2000/svg" xmlns:xlink="http://www.w3.org/1999/xlink">
<g id="graph0" class="graph" transform="scale(1 1) rotate(0) translate(4 722)">
<title>G</title>
<polygon fill="#ffffff" stroke="transparent" points="-4,4 -4,-722 615.3818,-722 615.3818,4 -4,4"/>
<g id="clust1" class="cluster">
<title>cluster_Global</title>
<path fill="none" stroke="#c0c0c0" d="M273.3818,-8C273.3818,-8 591.3818,-8 591.3818,-8 597.3818,-8 603.3818,-14 603.3818,-20 603.3818,-20 603.3818,-698 603.3818,-698 603.3818,-704 597.3818,-710 591.3818,-710 591.3818,-710 273.3818,-710 273.3818,-710 267.3818,-710 261.3818,-704 261.3818,-698 261.3818,-698 261.3818,-20 261.3818,-20 261.3818,-14 267.3818,-8 273.3818,-8"/>
<text text-anchor="middle" x="432.3818" y="-697.2" font-family="Times,serif" font-size="11.00" fill="#c0c0c0">Global</text>
</g>
<g id="clust2" class="cluster">
<title>cluster_\Broker</title>
<path fill="none" stroke="#c0c0c0" d="M281.3818,-16C281.3818,-16 382.3818,-16 382.3818,-16 388.3818,-16 394.3818,-22 394.3818,-28 394.3818,-28 394.3818,-670 394.3818,-670 394.3818,-676 388.3818,-682 382.3818,-682 382.3818,-682 281.3818,-682 281.3818,-682 275.3818,-682 269.3818,-676 269.3818,-670 269.3818,-670 269.3818,-28 269.3818,-28 269.3818,-22 275.3818,-16 281.3818,-16"/>
<text text-anchor="middle" x="331.8818" y="-669.2" font-family="Times,serif" font-size="11.00" fill="#c0c0c0">Broker</text>
</g>
<g id="clust3" class="cluster">
<title>cluster_\BrokerExpansion</title>
<path fill="none" stroke="#c0c0c0" d="M462.3818,-16C462.3818,-16 583.3818,-16 583.3818,-16 589.3818,-16 595.3818,-22 595.3818,-28 595.3818,-28 595.3818,-130 595.3818,-130 595.3818,-136 589.3818,-142 583.3818,-142 583.3818,-142 462.3818,-142 462.3818,-142 456.3818,-142 450.3818,-136 450.3818,-130 450.3818,-130 450.3818,-28 450.3818,-28 450.3818,-22 456.3818,-16 462.3818,-16"/>
<text text-anchor="middle" x="522.8818" y="-129.2" font-family="Times,serif" font-size="11.00" fill="#c0c0c0">BrokerExpansion</text>
</g>
<!-- \\Broker\\Authentication -->
<g id="node1" class="node">
<title>\\Broker\\Authentication</title>
<polygon fill="none" stroke="#000000" points="386.3818,-654 277.3818,-654 277.3818,-618 386.3818,-618 386.3818,-654"/>
<text text-anchor="middle" x="331.8818" y="-633.2" font-family="Courier,monospace" font-size="11.00" fill="#000000">Authentication</text>
</g>
<!-- \\Broker\\Cache -->
<g id="node2" class="node">
<title>\\Broker\\Cache</title>
<polygon fill="none" stroke="#000000" points="358.8818,-600 304.8818,-600 304.8818,-564 358.8818,-564 358.8818,-600"/>
<text text-anchor="middle" x="331.8818" y="-579.2" font-family="Courier,monospace" font-size="11.00" fill="#000000">Cache</text>
</g>
<!-- \\Broker\\Collection -->
<g id="node3" class="node">
<title>\\Broker\\Collection</title>
<polygon fill="none" stroke="#000000" points="373.3818,-546 290.3818,-546 290.3818,-510 373.3818,-510 373.3818,-546"/>
<text text-anchor="middle" x="331.8818" y="-525.2" font-family="Courier,monospace" font-size="11.00" fill="#000000">Collection</text>
</g>
<!-- \\Broker\\Configuration -->
<g id="node4" class="node">
<title>\\Broker\\Configuration</title>
<polygon fill="none" stroke="#000000" points="382.8818,-492 280.8818,-492 280.8818,-456 382.8818,-456 382.8818,-492"/>
<text text-anchor="middle" x="331.8818" y="-471.2" font-family="Courier,monospace" font-size="11.00" fill="#000000">Configuration</text>
</g>
<!-- \\Broker\\ExpansionCache -->
<g id="node5" class="node">
<title>\\Broker\\ExpansionCache</title>
<polygon fill="none" stroke="#000000" points="386.3818,-438 277.3818,-438 277.3818,-402 386.3818,-402 386.3818,-438"/>
<text text-anchor="middle" x="331.8818" y="-417.2" font-family="Courier,monospace" font-size="11.00" fill="#000000">ExpansionCache</text>
</g>
<!-- \\Broker\\Parser -->
<g id="node6" class="node">
<title>\\Broker\\Parser</title>
<polygon fill="none" stroke="#000000" points="359.8818,-384 303.8818,-384 303.8818,-348 359.8818,-348 359.8818,-384"/>
<text text-anchor="middle" x="331.8818" y="-363.2" font-family="Courier,monospace" font-size="11.00" fill="#000000">Parser</text>
</g>
<!-- \\Broker\\Response -->
<g id="node7" class="node">
<title>\\Broker\\Response</title>
<polygon fill="none" stroke="#000000" points="366.3818,-330 297.3818,-330 297.3818,-294 366.3818,-294 366.3818,-330"/>
<text text-anchor="middle" x="331.8818" y="-309.2" font-family="Courier,monospace" font-size="11.00" fill="#000000">Response</text>
</g>
<!-- \\Broker\\Session -->
<g id="node8" class="node">
<title>\\Broker\\Session</title>
<polygon fill="none" stroke="#000000" points="363.3818,-276 300.3818,-276 300.3818,-240 363.3818,-240 363.3818,-276"/>
<text text-anchor="middle" x="331.8818" y="-255.2" font-family="Courier,monospace" font-size="11.00" fill="#000000">Session</text>
</g>
<!-- \\SessionHandlerInterface -->
<g id="node15" class="node">
<title>\\SessionHandlerInterface</title>
<ellipse fill="none" stroke="#000000" cx="102.6909" cy="-258" rx="102.8821" ry="18"/>
<text text-anchor="middle" x="102.6909" y="-254.3" font-family="Times,serif" font-size="14.00" fill="#c0c0c0">\SessionHandlerInterface</text>
</g>
<!-- \\Broker\\Session&#45;&gt;\\SessionHandlerInterface -->
<g id="edge1" class="edge">
<title>\\Broker\\Session&#45;&gt;\\SessionHandlerInterface</title>
<path fill="none" stroke="#000000" stroke-dasharray="1,5" d="M300.0138,-258C277.7608,-258 246.5962,-258 215.5965,-258"/>
<polygon fill="none" stroke="#000000" points="215.5489,-254.5001 205.5489,-258 215.5489,-261.5001 215.5489,-254.5001"/>
</g>
<!-- \\Broker\\Solr -->
<g id="node9" class="node">
<title>\\Broker\\Solr</title>
<polygon fill="none" stroke="#000000" points="358.8818,-222 304.8818,-222 304.8818,-186 358.8818,-186 358.8818,-222"/>
<text text-anchor="middle" x="331.8818" y="-201.2" font-family="Courier,monospace" font-size="11.00" fill="#000000">Solr</text>
</g>
<!-- \\Broker\\SolrException -->
<g id="node10" class="node">
<title>\\Broker\\SolrException</title>
<polygon fill="none" stroke="#000000" points="382.8818,-168 280.8818,-168 280.8818,-132 382.8818,-132 382.8818,-168"/>
<text text-anchor="middle" x="331.8818" y="-147.2" font-family="Courier,monospace" font-size="11.00" fill="#000000">SolrException</text>
</g>
<!-- \\Exception -->
<g id="node16" class="node">
<title>\\Exception</title>
<ellipse fill="none" stroke="#000000" cx="102.6909" cy="-150" rx="42.4939" ry="18"/>
<text text-anchor="middle" x="102.6909" y="-146.3" font-family="Times,serif" font-size="14.00" fill="#c0c0c0">xception</text>
</g>
<!-- \\Broker\\SolrException&#45;&gt;\\Exception -->
<g id="edge2" class="edge">
<title>\\Broker\\SolrException&#45;&gt;\\Exception</title>
<path fill="none" stroke="#000000" d="M280.7321,-150C243.4693,-150 193.1374,-150 155.4952,-150"/>
<polygon fill="none" stroke="#000000" points="155.2362,-146.5001 145.2361,-150 155.2361,-153.5001 155.2362,-146.5001"/>
</g>
<!-- \\Broker\\Status -->
<g id="node11" class="node">
<title>\\Broker\\Status</title>
<polygon fill="none" stroke="#000000" points="359.8818,-114 303.8818,-114 303.8818,-78 359.8818,-78 359.8818,-114"/>
<text text-anchor="middle" x="331.8818" y="-93.2" font-family="Courier,monospace" font-size="11.00" fill="#000000">Status</text>
</g>
<!-- \\Broker\\Expansion -->
<g id="node12" class="node">
<title>\\Broker\\Expansion</title>
<polygon fill="none" stroke="#000000" points="369.8818,-60 293.8818,-60 293.8818,-24 369.8818,-24 369.8818,-60"/>
<text text-anchor="middle" x="331.8818" y="-39.2" font-family="Courier,monospace" font-size="11.00" fill="#000000">Expansion</text>
</g>
<!-- \\BrokerExpansion\\ExplodeExpansion -->
<g id="node13" class="node">
<title>\\BrokerExpansion\\ExplodeExpansion</title>
<polygon fill="none" stroke="#000000" points="583.8818,-114 461.8818,-114 461.8818,-78 583.8818,-78 583.8818,-114"/>
<text text-anchor="middle" x="522.8818" y="-93.2" font-family="Courier,monospace" font-size="11.00" fill="#000000">ExplodeExpansion</text>
</g>
<!-- \\BrokerExpansion\\ExplodeExpansion&#45;&gt;\\Broker\\Expansion -->
<g id="edge3" class="edge">
<title>\\BrokerExpansion\\ExplodeExpansion&#45;&gt;\\Broker\\Expansion</title>
<path fill="none" stroke="#000000" stroke-dasharray="1,5" d="M461.6601,-78.6912C435.1912,-71.2079 404.6718,-62.5794 379.8816,-55.5706"/>
<polygon fill="none" stroke="#000000" points="380.5618,-52.1258 369.9868,-52.7731 378.6574,-58.8618 380.5618,-52.1258"/>
</g>
<!-- \\BrokerExpansion\\IdentityExpansion -->
<g id="node14" class="node">
<title>\\BrokerExpansion\\IdentityExpansion</title>
<polygon fill="none" stroke="#000000" points="587.3818,-60 458.3818,-60 458.3818,-24 587.3818,-24 587.3818,-60"/>
<text text-anchor="middle" x="522.8818" y="-39.2" font-family="Courier,monospace" font-size="11.00" fill="#000000">IdentityExpansion</text>
</g>
<!-- \\BrokerExpansion\\IdentityExpansion&#45;&gt;\\Broker\\Expansion -->
<g id="edge4" class="edge">
<title>\\BrokerExpansion\\IdentityExpansion&#45;&gt;\\Broker\\Expansion</title>
<path fill="none" stroke="#000000" stroke-dasharray="1,5" d="M458.2179,-42C432.6699,-42 403.8237,-42 380.1517,-42"/>
<polygon fill="none" stroke="#000000" points="380.0101,-38.5001 370.01,-42 380.01,-45.5001 380.0101,-38.5001"/>
</g>
</g>
</svg>
