<?xml version="1.0" encoding="UTF-8" standalone="no"?>
<!DOCTYPE svg PUBLIC "-//W3C//DTD SVG 1.1//EN"
 "http://www.w3.org/Graphics/SVG/1.1/DTD/svg11.dtd">
<!-- Generated by graphviz version 2.40.1 (20161225.0304)
 -->
<!-- Title: G Pages: 1 -->
<svg width="598pt" height="762pt"
 viewBox="0.00 0.00 598.00 762.00" xmlns="http://www.w3.org/2000/svg" xmlns:xlink="http://www.w3.org/1999/xlink">
<g id="graph0" class="graph" transform="scale(1 1) rotate(0) translate(4 758)">
<title>G</title>
<polygon fill="#ffffff" stroke="transparent" points="-4,4 -4,-758 594,-758 594,4 -4,4"/>
<g id="clust1" class="cluster">
<title>cluster_Global</title>
<path fill="none" stroke="#c0c0c0" d="M20,-44C20,-44 570,-44 570,-44 576,-44 582,-50 582,-56 582,-56 582,-734 582,-734 582,-740 576,-746 570,-746 570,-746 20,-746 20,-746 14,-746 8,-740 8,-734 8,-734 8,-56 8,-56 8,-50 14,-44 20,-44"/>
<text text-anchor="middle" x="295" y="-733.2" font-family="Times,serif" font-size="11.00" fill="#c0c0c0">Global</text>
</g>
<g id="clust2" class="cluster">
<title>cluster_\Broker</title>
<path fill="none" stroke="#c0c0c0" d="M260,-52C260,-52 361,-52 361,-52 367,-52 373,-58 373,-64 373,-64 373,-706 373,-706 373,-712 367,-718 361,-718 361,-718 260,-718 260,-718 254,-718 248,-712 248,-706 248,-706 248,-64 248,-64 248,-58 254,-52 260,-52"/>
<text text-anchor="middle" x="310.5" y="-705.2" font-family="Times,serif" font-size="11.00" fill="#c0c0c0">Broker</text>
</g>
<g id="clust3" class="cluster">
<title>cluster_\BrokerExpansion</title>
<path fill="none" stroke="#c0c0c0" d="M441,-52C441,-52 562,-52 562,-52 568,-52 574,-58 574,-64 574,-64 574,-166 574,-166 574,-172 568,-178 562,-178 562,-178 441,-178 441,-178 435,-178 429,-172 429,-166 429,-166 429,-64 429,-64 429,-58 435,-52 441,-52"/>
<text text-anchor="middle" x="501.5" y="-165.2" font-family="Times,serif" font-size="11.00" fill="#c0c0c0">BrokerExpansion</text>
</g>
<!-- \\Broker\\Authentication -->
<g id="node1" class="node">
<title>\\Broker\\Authentication</title>
<polygon fill="none" stroke="#000000" points="365,-690 256,-690 256,-654 365,-654 365,-690"/>
<text text-anchor="middle" x="310.5" y="-669.2" font-family="Courier,monospace" font-size="11.00" fill="#000000">Authentication</text>
</g>
<!-- \\Broker\\Cache -->
<g id="node2" class="node">
<title>\\Broker\\Cache</title>
<polygon fill="none" stroke="#000000" points="337.5,-636 283.5,-636 283.5,-600 337.5,-600 337.5,-636"/>
<text text-anchor="middle" x="310.5" y="-615.2" font-family="Courier,monospace" font-size="11.00" fill="#000000">Cache</text>
</g>
<!-- \\Broker\\Collection -->
<g id="node3" class="node">
<title>\\Broker\\Collection</title>
<polygon fill="none" stroke="#000000" points="352,-582 269,-582 269,-546 352,-546 352,-582"/>
<text text-anchor="middle" x="310.5" y="-561.2" font-family="Courier,monospace" font-size="11.00" fill="#000000">Collection</text>
</g>
<!-- \\Broker\\Configuration -->
<g id="node4" class="node">
<title>\\Broker\\Configuration</title>
<polygon fill="none" stroke="#000000" points="361.5,-528 259.5,-528 259.5,-492 361.5,-492 361.5,-528"/>
<text text-anchor="middle" x="310.5" y="-507.2" font-family="Courier,monospace" font-size="11.00" fill="#000000">Configuration</text>
</g>
<!-- \\Broker\\ExpansionCache -->
<g id="node5" class="node">
<title>\\Broker\\ExpansionCache</title>
<polygon fill="none" stroke="#000000" points="365,-474 256,-474 256,-438 365,-438 365,-474"/>
<text text-anchor="middle" x="310.5" y="-453.2" font-family="Courier,monospace" font-size="11.00" fill="#000000">ExpansionCache</text>
</g>
<!-- \\Broker\\Parser -->
<g id="node6" class="node">
<title>\\Broker\\Parser</title>
<polygon fill="none" stroke="#000000" points="338.5,-420 282.5,-420 282.5,-384 338.5,-384 338.5,-420"/>
<text text-anchor="middle" x="310.5" y="-399.2" font-family="Courier,monospace" font-size="11.00" fill="#000000">Parser</text>
</g>
<!-- \\Broker\\Response -->
<g id="node7" class="node">
<title>\\Broker\\Response</title>
<polygon fill="none" stroke="#000000" points="345,-366 276,-366 276,-330 345,-330 345,-366"/>
<text text-anchor="middle" x="310.5" y="-345.2" font-family="Courier,monospace" font-size="11.00" fill="#000000">Response</text>
</g>
<!-- \\Broker\\Session -->
<g id="node8" class="node">
<title>\\Broker\\Session</title>
<polygon fill="none" stroke="#000000" points="342,-312 279,-312 279,-276 342,-276 342,-312"/>
<text text-anchor="middle" x="310.5" y="-291.2" font-family="Courier,monospace" font-size="11.00" fill="#000000">Session</text>
</g>
<!-- \\SessionHandlerInterface -->
<g id="node15" class="node">
<title>\\SessionHandlerInterface</title>
<polygon fill="none" stroke="#000000" points="184,-312 16,-312 16,-276 184,-276 184,-312"/>
<text text-anchor="middle" x="100" y="-291.2" font-family="Courier,monospace" font-size="11.00" fill="#000000">SessionHandlerInterface</text>
</g>
<!-- \\Broker\\Session&#45;&gt;\\SessionHandlerInterface -->
<g id="edge1" class="edge">
<title>\\Broker\\Session&#45;&gt;\\SessionHandlerInterface</title>
<path fill="none" stroke="#000000" stroke-dasharray="1,5" d="M278.986,-294C256.4194,-294 224.7644,-294 194.3388,-294"/>
<polygon fill="none" stroke="#000000" points="194.0826,-290.5001 184.0826,-294 194.0825,-297.5001 194.0826,-290.5001"/>
</g>
<!-- \\Broker\\Solr -->
<g id="node9" class="node">
<title>\\Broker\\Solr</title>
<polygon fill="none" stroke="#000000" points="337.5,-258 283.5,-258 283.5,-222 337.5,-222 337.5,-258"/>
<text text-anchor="middle" x="310.5" y="-237.2" font-family="Courier,monospace" font-size="11.00" fill="#000000">Solr</text>
</g>
<!-- \\Broker\\SolrException -->
<g id="node10" class="node">
<title>\\Broker\\SolrException</title>
<polygon fill="none" stroke="#000000" points="361.5,-204 259.5,-204 259.5,-168 361.5,-168 361.5,-204"/>
<text text-anchor="middle" x="310.5" y="-183.2" font-family="Courier,monospace" font-size="11.00" fill="#000000">SolrException</text>
</g>
<!-- \\Exception -->
<g id="node16" class="node">
<title>\\Exception</title>
<ellipse fill="none" stroke="#000000" cx="100" cy="-18" rx="42.4939" ry="18"/>
<text text-anchor="middle" x="100" y="-14.3" font-family="Times,serif" font-size="14.00" fill="#c0c0c0">xception</text>
</g>
<!-- \\Broker\\SolrException&#45;&gt;\\Exception -->
<g id="edge2" class="edge">
<title>\\Broker\\SolrException&#45;&gt;\\Exception</title>
<path fill="none" stroke="#000000" d="M260.1621,-167.9789C255.797,-165.3389 251.6574,-162.3568 248,-159 203.7572,-118.3934 231.1914,-77.1389 184,-40 174.5597,-32.5707 162.8574,-27.6348 151.216,-24.36"/>
<polygon fill="none" stroke="#000000" points="152.0481,-20.9605 141.5026,-21.9816 150.3832,-27.7596 152.0481,-20.9605"/>
</g>
<!-- \\Broker\\Status -->
<g id="node11" class="node">
<title>\\Broker\\Status</title>
<polygon fill="none" stroke="#000000" points="338.5,-150 282.5,-150 282.5,-114 338.5,-114 338.5,-150"/>
<text text-anchor="middle" x="310.5" y="-129.2" font-family="Courier,monospace" font-size="11.00" fill="#000000">Status</text>
</g>
<!-- \\Broker\\Expansion -->
<g id="node12" class="node">
<title>\\Broker\\Expansion</title>
<polygon fill="none" stroke="#000000" points="348.5,-96 272.5,-96 272.5,-60 348.5,-60 348.5,-96"/>
<text text-anchor="middle" x="310.5" y="-75.2" font-family="Courier,monospace" font-size="11.00" fill="#000000">Expansion</text>
</g>
<!-- \\BrokerExpansion\\ExplodeExpansion -->
<g id="node13" class="node">
<title>\\BrokerExpansion\\ExplodeExpansion</title>
<polygon fill="none" stroke="#000000" points="562.5,-150 440.5,-150 440.5,-114 562.5,-114 562.5,-150"/>
<text text-anchor="middle" x="501.5" y="-129.2" font-family="Courier,monospace" font-size="11.00" fill="#000000">ExplodeExpansion</text>
</g>
<!-- \\BrokerExpansion\\ExplodeExpansion&#45;&gt;\\Broker\\Expansion -->
<g id="edge3" class="edge">
<title>\\BrokerExpansion\\ExplodeExpansion&#45;&gt;\\Broker\\Expansion</title>
<path fill="none" stroke="#000000" stroke-dasharray="1,5" d="M440.2783,-114.6912C413.8094,-107.2079 383.29,-98.5794 358.4998,-91.5706"/>
<polygon fill="none" stroke="#000000" points="359.18,-88.1258 348.605,-88.7731 357.2756,-94.8618 359.18,-88.1258"/>
</g>
<!-- \\BrokerExpansion\\IdentityExpansion -->
<g id="node14" class="node">
<title>\\BrokerExpansion\\IdentityExpansion</title>
<polygon fill="none" stroke="#000000" points="566,-96 437,-96 437,-60 566,-60 566,-96"/>
<text text-anchor="middle" x="501.5" y="-75.2" font-family="Courier,monospace" font-size="11.00" fill="#000000">IdentityExpansion</text>
</g>
<!-- \\BrokerExpansion\\IdentityExpansion&#45;&gt;\\Broker\\Expansion -->
<g id="edge4" class="edge">
<title>\\BrokerExpansion\\IdentityExpansion&#45;&gt;\\Broker\\Expansion</title>
<path fill="none" stroke="#000000" stroke-dasharray="1,5" d="M436.8361,-78C411.2881,-78 382.4419,-78 358.7699,-78"/>
<polygon fill="none" stroke="#000000" points="358.6283,-74.5001 348.6282,-78 358.6282,-81.5001 358.6283,-74.5001"/>
</g>
</g>
</svg>
