<?xml version="1.0" encoding="UTF-8" standalone="no"?>
<!DOCTYPE svg PUBLIC "-//W3C//DTD SVG 1.1//EN"
 "http://www.w3.org/Graphics/SVG/1.1/DTD/svg11.dtd">
<!-- Generated by graphviz version 2.40.1 (20161225.0304)
 -->
<!-- Title: G Pages: 1 -->
<svg width="598pt" height="806pt"
 viewBox="0.00 0.00 598.00 806.00" xmlns="http://www.w3.org/2000/svg" xmlns:xlink="http://www.w3.org/1999/xlink">
<g id="graph0" class="graph" transform="scale(1 1) rotate(0) translate(4 802)">
<title>G</title>
<polygon fill="#ffffff" stroke="transparent" points="-4,4 -4,-802 594,-802 594,4 -4,4"/>
<g id="clust1" class="cluster">
<title>cluster_Global</title>
<path fill="none" stroke="#c0c0c0" d="M20,-44C20,-44 570,-44 570,-44 576,-44 582,-50 582,-56 582,-56 582,-778 582,-778 582,-784 576,-790 570,-790 570,-790 20,-790 20,-790 14,-790 8,-784 8,-778 8,-778 8,-56 8,-56 8,-50 14,-44 20,-44"/>
<text text-anchor="middle" x="295" y="-777.2" font-family="Times,serif" font-size="11.00" fill="#c0c0c0">Global</text>
</g>
<g id="clust2" class="cluster">
<title>cluster_\Broker</title>
<path fill="none" stroke="#c0c0c0" d="M62.5,-52C62.5,-52 361,-52 361,-52 367,-52 373,-58 373,-64 373,-64 373,-706 373,-706 373,-712 367,-718 361,-718 361,-718 62.5,-718 62.5,-718 56.5,-718 50.5,-712 50.5,-706 50.5,-706 50.5,-64 50.5,-64 50.5,-58 56.5,-52 62.5,-52"/>
<text text-anchor="middle" x="211.75" y="-705.2" font-family="Times,serif" font-size="11.00" fill="#c0c0c0">Broker</text>
</g>
<g id="clust3" class="cluster">
<title>cluster_\BrokerExpansion</title>
<path fill="none" stroke="#c0c0c0" d="M441,-52C441,-52 562,-52 562,-52 568,-52 574,-58 574,-64 574,-64 574,-166 574,-166 574,-172 568,-178 562,-178 562,-178 441,-178 441,-178 435,-178 429,-172 429,-166 429,-166 429,-64 429,-64 429,-58 435,-52 441,-52"/>
<text text-anchor="middle" x="501.5" y="-165.2" font-family="Times,serif" font-size="11.00" fill="#c0c0c0">BrokerExpansion</text>
</g>
<!-- \\Broker\\Authentication -->
<g id="node1" class="node">
<title>\\Broker\\Authentication</title>
<polygon fill="none" stroke="#000000" points="365,-690 256,-690 256,-654 365,-654 365,-690"/>
<text text-anchor="middle" x="310.5" y="-669.2" font-family="Courier,monospace" font-size="11.00" fill="#000000">Authentication</text>
</g>
<!-- \\Broker\\Cache -->
<g id="node2" class="node">
<title>\\Broker\\Cache</title>
<polygon fill="none" stroke="#000000" points="337.5,-204 283.5,-204 283.5,-168 337.5,-168 337.5,-204"/>
<text text-anchor="middle" x="310.5" y="-183.2" font-family="Courier,monospace" font-size="11.00" fill="#000000">Cache</text>
</g>
<!-- \\Broker\\Database -->
<g id="node5" class="node">
<title>\\Broker\\Database</title>
<polygon fill="none" stroke="#000000" points="141.5,-474 58.5,-474 58.5,-438 141.5,-438 141.5,-474"/>
<text text-anchor="start" x="66.5" y="-459.2" font-family="Courier,monospace" font-size="11.00" fill="#000000">«abstract»</text>
<text text-anchor="start" x="73.5" y="-447.2" font-family="Courier,monospace" font-size="11.00" fill="#000000">Database</text>
</g>
<!-- \\Broker\\Cache&#45;&gt;\\Broker\\Database -->
<g id="edge1" class="edge">
<title>\\Broker\\Cache&#45;&gt;\\Broker\\Database</title>
<path fill="none" stroke="#000000" d="M283.4957,-195.8862C274.1065,-200.1848 263.947,-205.8877 256,-213 185.0536,-276.4947 133.5163,-379.5175 111.6361,-428.4751"/>
<polygon fill="none" stroke="#000000" points="108.3602,-427.2303 107.5396,-437.7933 114.7682,-430.0475 108.3602,-427.2303"/>
</g>
<!-- \\Broker\\Collection -->
<g id="node3" class="node">
<title>\\Broker\\Collection</title>
<polygon fill="none" stroke="#000000" points="352,-582 269,-582 269,-546 352,-546 352,-582"/>
<text text-anchor="middle" x="310.5" y="-561.2" font-family="Courier,monospace" font-size="11.00" fill="#000000">Collection</text>
</g>
<!-- \\Broker\\Collection&#45;&gt;\\Broker\\Database -->
<g id="edge2" class="edge">
<title>\\Broker\\Collection&#45;&gt;\\Broker\\Database</title>
<path fill="none" stroke="#000000" d="M271.2,-545.8735C265.9851,-543.0817 260.7906,-540.0925 256,-537 221.2415,-514.5623 220.8608,-496.7852 184,-478 174.025,-472.9165 162.7682,-468.9309 151.8128,-465.8341"/>
<polygon fill="none" stroke="#000000" points="152.4423,-462.381 141.8818,-463.234 150.6692,-469.1528 152.4423,-462.381"/>
</g>
<!-- \\Broker\\Configuration -->
<g id="node4" class="node">
<title>\\Broker\\Configuration</title>
<polygon fill="none" stroke="#000000" points="361.5,-528 259.5,-528 259.5,-492 361.5,-492 361.5,-528"/>
<text text-anchor="middle" x="310.5" y="-507.2" font-family="Courier,monospace" font-size="11.00" fill="#000000">Configuration</text>
</g>
<!-- \\Broker\\ExpansionCache -->
<g id="node6" class="node">
<title>\\Broker\\ExpansionCache</title>
<polygon fill="none" stroke="#000000" points="365,-474 256,-474 256,-438 365,-438 365,-474"/>
<text text-anchor="middle" x="310.5" y="-453.2" font-family="Courier,monospace" font-size="11.00" fill="#000000">ExpansionCache</text>
</g>
<!-- \\Broker\\ExpansionCache&#45;&gt;\\Broker\\Database -->
<g id="edge3" class="edge">
<title>\\Broker\\ExpansionCache&#45;&gt;\\Broker\\Database</title>
<path fill="none" stroke="#000000" d="M255.7431,-456C223.6758,-456 183.4131,-456 151.859,-456"/>
<polygon fill="none" stroke="#000000" points="151.5164,-452.5001 141.5164,-456 151.5163,-459.5001 151.5164,-452.5001"/>
</g>
<!-- \\Broker\\Parser -->
<g id="node7" class="node">
<title>\\Broker\\Parser</title>
<polygon fill="none" stroke="#000000" points="338.5,-420 282.5,-420 282.5,-384 338.5,-384 338.5,-420"/>
<text text-anchor="middle" x="310.5" y="-399.2" font-family="Courier,monospace" font-size="11.00" fill="#000000">Parser</text>
</g>
<!-- \\Broker\\Response -->
<g id="node8" class="node">
<title>\\Broker\\Response</title>
<polygon fill="none" stroke="#000000" points="345,-366 276,-366 276,-330 345,-330 345,-366"/>
<text text-anchor="middle" x="310.5" y="-345.2" font-family="Courier,monospace" font-size="11.00" fill="#000000">Response</text>
</g>
<!-- \\Broker\\Session -->
<g id="node9" class="node">
<title>\\Broker\\Session</title>
<polygon fill="none" stroke="#000000" points="342,-636 279,-636 279,-600 342,-600 342,-636"/>
<text text-anchor="middle" x="310.5" y="-615.2" font-family="Courier,monospace" font-size="11.00" fill="#000000">Session</text>
</g>
<!-- \\Broker\\Session&#45;&gt;\\Broker\\Database -->
<g id="edge4" class="edge">
<title>\\Broker\\Session&#45;&gt;\\Broker\\Database</title>
<path fill="none" stroke="#000000" d="M278.9737,-605.9804C270.9295,-601.9882 262.6778,-596.997 256,-591 211.6933,-551.2107 232.1247,-513.0754 184,-478 174.4832,-471.0637 162.9528,-466.3121 151.524,-463.0577"/>
<polygon fill="none" stroke="#000000" points="152.1101,-459.5966 141.5597,-460.5659 150.4118,-466.3874 152.1101,-459.5966"/>
</g>
<!-- \\SessionHandlerInterface -->
<g id="node16" class="node">
<title>\\SessionHandlerInterface</title>
<polygon fill="none" stroke="#000000" points="184,-762 16,-762 16,-726 184,-726 184,-762"/>
<text text-anchor="middle" x="100" y="-741.2" font-family="Courier,monospace" font-size="11.00" fill="#000000">SessionHandlerInterface</text>
</g>
<!-- \\Broker\\Session&#45;&gt;\\SessionHandlerInterface -->
<g id="edge5" class="edge">
<title>\\Broker\\Session&#45;&gt;\\SessionHandlerInterface</title>
<path fill="none" stroke="#000000" stroke-dasharray="1,5" d="M278.8221,-631.3028C271.0364,-635.2058 262.9478,-639.8329 256,-645 220.9012,-671.103 223.6607,-694.6702 185.5499,-720.3908"/>
<polygon fill="none" stroke="#000000" points="183.3703,-717.6269 176.7688,-725.9137 187.0971,-723.5524 183.3703,-717.6269"/>
</g>
<!-- \\Broker\\Solr -->
<g id="node10" class="node">
<title>\\Broker\\Solr</title>
<polygon fill="none" stroke="#000000" points="337.5,-258 283.5,-258 283.5,-222 337.5,-222 337.5,-258"/>
<text text-anchor="middle" x="310.5" y="-237.2" font-family="Courier,monospace" font-size="11.00" fill="#000000">Solr</text>
</g>
<!-- \\Broker\\SolrException -->
<g id="node11" class="node">
<title>\\Broker\\SolrException</title>
<polygon fill="none" stroke="#000000" points="361.5,-150 259.5,-150 259.5,-114 361.5,-114 361.5,-150"/>
<text text-anchor="middle" x="310.5" y="-129.2" font-family="Courier,monospace" font-size="11.00" fill="#000000">SolrException</text>
</g>
<!-- \\Exception -->
<g id="node17" class="node">
<title>\\Exception</title>
<ellipse fill="none" stroke="#000000" cx="100" cy="-18" rx="42.4939" ry="18"/>
<text text-anchor="middle" x="100" y="-14.3" font-family="Times,serif" font-size="14.00" fill="#c0c0c0">xception</text>
</g>
<!-- \\Broker\\SolrException&#45;&gt;\\Exception -->
<g id="edge6" class="edge">
<title>\\Broker\\SolrException&#45;&gt;\\Exception</title>
<path fill="none" stroke="#000000" d="M271.5384,-113.9522C266.219,-111.1276 260.9056,-108.1085 256,-105 221.5248,-83.1543 219.693,-67.7936 184,-48 171.9133,-41.2973 158.0445,-35.6218 145.1052,-31.072"/>
<polygon fill="none" stroke="#000000" points="146.0307,-27.6905 135.4366,-27.8137 143.7953,-34.324 146.0307,-27.6905"/>
</g>
<!-- \\Broker\\Status -->
<g id="node12" class="node">
<title>\\Broker\\Status</title>
<polygon fill="none" stroke="#000000" points="338.5,-312 282.5,-312 282.5,-276 338.5,-276 338.5,-312"/>
<text text-anchor="middle" x="310.5" y="-291.2" font-family="Courier,monospace" font-size="11.00" fill="#000000">Status</text>
</g>
<!-- \\Broker\\Status&#45;&gt;\\Broker\\Database -->
<g id="edge7" class="edge">
<title>\\Broker\\Status&#45;&gt;\\Broker\\Database</title>
<path fill="none" stroke="#000000" d="M282.2983,-306.2873C273.6069,-310.5139 264.1781,-315.5637 256,-321 206.1668,-354.1259 154.9356,-401.5126 125.3557,-430.4377"/>
<polygon fill="none" stroke="#000000" points="122.6259,-428.214 117.9609,-437.7265 127.5398,-433.1993 122.6259,-428.214"/>
</g>
<!-- \\Broker\\Expansion -->
<g id="node13" class="node">
<title>\\Broker\\Expansion</title>
<polygon fill="none" stroke="#000000" points="348.5,-96 272.5,-96 272.5,-60 348.5,-60 348.5,-96"/>
<text text-anchor="middle" x="310.5" y="-75.2" font-family="Courier,monospace" font-size="11.00" fill="#000000">Expansion</text>
</g>
<!-- \\BrokerExpansion\\ExplodeExpansion -->
<g id="node14" class="node">
<title>\\BrokerExpansion\\ExplodeExpansion</title>
<polygon fill="none" stroke="#000000" points="562.5,-150 440.5,-150 440.5,-114 562.5,-114 562.5,-150"/>
<text text-anchor="middle" x="501.5" y="-129.2" font-family="Courier,monospace" font-size="11.00" fill="#000000">ExplodeExpansion</text>
</g>
<!-- \\BrokerExpansion\\ExplodeExpansion&#45;&gt;\\Broker\\Expansion -->
<g id="edge8" class="edge">
<title>\\BrokerExpansion\\ExplodeExpansion&#45;&gt;\\Broker\\Expansion</title>
<path fill="none" stroke="#000000" stroke-dasharray="1,5" d="M440.2783,-114.6912C413.8094,-107.2079 383.29,-98.5794 358.4998,-91.5706"/>
<polygon fill="none" stroke="#000000" points="359.18,-88.1258 348.605,-88.7731 357.2756,-94.8618 359.18,-88.1258"/>
</g>
<!-- \\BrokerExpansion\\IdentityExpansion -->
<g id="node15" class="node">
<title>\\BrokerExpansion\\IdentityExpansion</title>
<polygon fill="none" stroke="#000000" points="566,-96 437,-96 437,-60 566,-60 566,-96"/>
<text text-anchor="middle" x="501.5" y="-75.2" font-family="Courier,monospace" font-size="11.00" fill="#000000">IdentityExpansion</text>
</g>
<!-- \\BrokerExpansion\\IdentityExpansion&#45;&gt;\\Broker\\Expansion -->
<g id="edge9" class="edge">
<title>\\BrokerExpansion\\IdentityExpansion&#45;&gt;\\Broker\\Expansion</title>
<path fill="none" stroke="#000000" stroke-dasharray="1,5" d="M436.8361,-78C411.2881,-78 382.4419,-78 358.7699,-78"/>
<polygon fill="none" stroke="#000000" points="358.6283,-74.5001 348.6282,-78 358.6282,-81.5001 358.6283,-74.5001"/>
</g>
</g>
</svg>
